<svg aria-hidden="true" style="position:absolute;width:0;height:0;overflow:hidden" xmlns="http://www.w3.org/2000/svg">
  <defs>
    <symbol id="cinema" viewBox="0 0 32 32">
      <path d="M29.416 5.042H2.583A2.587 2.587 0 0 0-.001 7.626v16.748a2.587 2.587 0 0 0 2.584 2.584h26.833A2.587 2.587 0 0 0 32 24.374V7.626a2.587 2.587 0 0 0-2.584-2.584zm-13.553 6.859v10.585H13.46v-5.467H7.718v5.467H5.315V11.901c0-.257-.147-.404-.404-.404h-.789V9.461H6.47c.881 0 1.247.385 1.247 1.247v4.274h5.742v-4.274c0-.862.385-1.247 1.247-1.247h2.348l-.789 2.036c-.257 0-.404.147-.404.404zm5.353 10.638h-2.871c-.883 0-1.251-.368-1.251-1.251v-8.055h2.411l.006 7.263h1.576c2.613 0 4.288-1.564 4.288-4.508 0-2.908-1.711-4.472-4.288-4.472l-4.063-.01.848-2.036 3.343.003c4.03 0 6.662 2.392 6.662 6.514s-2.631 6.551-6.661 6.551z"/>
    </symbol>

    <symbol id="like" viewBox="0 0 32 32">
      <path d="M23.275 2.906c-3.056 0-5.744 1.525-7.275 3.925-1.525-2.394-4.219-3.925-7.275-3.925C3.925 2.906 0 6.837 0 11.637c0 8.656 16 17.456 16 17.456s16-8.725 16-17.456c0-4.8-3.925-8.731-8.725-8.731z"/>
    </symbol><svg aria-hidden="true" style="position:absolute;width:0;height:0;overflow:hidden" xmlns="http://www.w3.org/2000/svg">

    <symbol id="cinema-icon" viewBox="0 0 43 32">
      <path d="M37.323.164c-2.132.079-3.886.152-3.897.161s-.053.487-.094 1.06c-.231 3.279-.899 5.266-2.201 6.548-.57.561-1.003.826-1.789 1.093-1.343.457-2.6.536-5.716.36-3.844-.217-5.99-.155-7.899.229-4.058.817-7.277 3.08-10.155 7.138-1.511 2.131-3.063 5.195-4.306 8.503C.89 26.255.001 28.89.001 29.003c0 .032.795.058 1.767.058h1.767l-.037.325c-.026.233-.002.378.087.513.263.402.138.394 6.26.394 3.42 0 5.794-.028 6.023-.072.775-.147.958-.417 1.386-2.051 1.94-7.394 4.242-11.511 7.282-13.024.948-.472 1.832-.667 3.04-.671 1.177-.004 1.734.082 4.131.633 2.417.556 2.578.582 3.696.582.847 0 1.098-.027 1.522-.161 2.504-.793 4.116-3.649 5.257-9.311.306-1.517.354-2.184.182-2.517-.125-.243-.567-.44-.983-.44-.227 0-.288-.027-.288-.127 0-.07.097-.73.216-1.468.265-1.653.266-1.67.055-1.657-.09.006-1.908.075-4.04.154zm3.525.76a3.554 3.554 0 0 0-.046.399c-.001.088-.058.127-.191.127-.174 0-.186-.019-.145-.226.025-.125.045-.304.045-.399 0-.138.038-.172.191-.172.18 0 .188.015.146.272zm-6.569.045c0 .311-.099.553-.227.553-.113 0-.136-.056-.136-.326 0-.3.015-.326.181-.326.105 0 .181.042.181.1zm5.869.027c-.003.137-.296 2.126-.366 2.482-.092.467-.511 2.2-.541 2.234-.011.013-1.198-.083-2.636-.213-2.221-.201-2.615-.254-2.615-.35a3.57 3.57 0 0 1 .108-.512c.136-.504.375-2.148.44-3.026l.05-.67h2.781c1.529 0 2.78.024 2.78.054zm-4.435.073-.994.022-.034.234c-.018.128-.069.615-.112 1.081s-.145 1.168-.226 1.558c-.257 1.238-.253 1.17-.059 1.21.095.02 1.15.12 2.346.223l2.353.203c.17.015.188-.024.383-.818.211-.861.511-2.521.598-3.316l.05-.453-1.656.016c-.911.009-2.103.026-2.649.038zm4.865 1.522c-.035.149-.064.296-.065.326s-.067.054-.147.054c-.155 0-.171-.069-.1-.426.035-.174.084-.226.21-.226.153 0 .16.019.101.272zm-6.444-.1c0 .311-.099.553-.227.553-.109 0-.136-.054-.136-.278 0-.153.022-.3.048-.326.087-.087.314-.05.314.051zm-.244 1.576a2.314 2.314 0 0 0-.045.326c0 .059-.077.1-.19.1-.161 0-.183-.024-.146-.163.024-.09.044-.218.045-.285.001-.107.099-.167.318-.196.035-.005.043.094.018.218zm6.398.046c-.035.149-.064.296-.065.326s-.071.054-.156.054c-.134 0-.148-.03-.109-.226.025-.125.045-.271.045-.326 0-.057.075-.1.173-.1.163 0 .17.016.11.272zm-6.734 1.296c0 .025-.038.172-.084.326-.067.224-.119.28-.259.28-.183 0-.184-.029-.012-.489.054-.144.355-.243.355-.117zm6.45.008c0 .03-.034.177-.076.326-.054.196-.115.272-.217.272-.164 0-.166-.016-.065-.381.054-.196.115-.272.217-.272.078 0 .141.024.141.054zm-3.345.6c1.329.159 2.427.288 2.44.288.053 0-.359 1.241-.626 1.884-.322.776-.941 1.85-1.313 2.278l-.248.285-2.563-.777c-1.41-.427-2.577-.791-2.594-.808s.155-.236.382-.487c.753-.83 1.152-1.523 1.629-2.828.061-.166.105-.192.274-.162.111.02 1.289.166 2.618.325zm-2.813-.056-.299.735c-.263.65-.751 1.409-1.294 2.015l-.37.413.511.152c.281.084 1.406.423 2.499.755l1.988.603.14-.153c.262-.286.8-1.145 1.089-1.737.27-.554.908-2.289.859-2.337-.022-.022-4.813-.608-4.972-.608-.046 0-.115.073-.152.163zm5.755 1.014c-.128.412-.179.489-.324.489-.124 0-.142-.03-.101-.163.128-.412.179-.489.324-.489.124 0 .142.03.101.163zm-6.598 0c-.203.351-.346.489-.505.489-.214 0-.214-.001-.024-.322.12-.203.198-.258.367-.258.151 0 .199.027.162.091zm-1.116 1.613c-.244.249-.374.326-.547.326-.35 0-.354-.078-.017-.373.244-.215.371-.273.597-.276l.287-.003-.32.326zm7.206-.091c-.108.341-.318.779-.372.778a.401.401 0 0 1-.151-.061c-.075-.048-.06-.144.072-.47.135-.332.199-.41.335-.41.141 0 .16.026.116.163zm-5.036 1.729c1.417.442 2.585.812 2.596.822s-.236.2-.546.424c-1.131.814-1.914 1.084-3.121 1.075-.679-.005-2.004-.142-2.787-.289-.557-.104-5.776-1.705-5.776-1.772 0-.036.073-.047.163-.025.499.125 2.485.201 3.223.124 1.302-.136 2.541-.505 3.25-.968.157-.103.316-.189.354-.191s1.228.358 2.645.8zm-3.764-.672.326.049-.373.161c-.349.151-.403.155-.87.069l-.497-.093.326-.118c.358-.129.593-.144 1.087-.069zm.799.169c-.439.281-1.341.621-2.136.805-.549.127-.901.153-2.154.157-.824.003-1.492.01-1.486.016s1.056.326 2.331.711c2.478.748 3.415.941 4.978 1.028 1.034.058 1.541-.032 2.342-.412.671-.319 1.453-.858 1.365-.94-.044-.041-3.409-1.118-4.844-1.549-.04-.012-.218.071-.396.185zm-11.593.215c.257.085.498.183.536.217.039.036-.365.062-.942.061-.745-.001-1.145-.037-1.518-.135-.49-.129-.499-.135-.254-.179.867-.156 1.639-.143 2.178.035zm2.546.038c.291.106.552.212.58.236.149.128-1.189-.066-1.609-.234l-.471-.187.485-.004c.35-.003.632.05 1.015.189zm1.994.116c.614.227.627.236.359.258-.271.022-.998-.162-1.502-.381l-.248-.107.377-.003c.252-.002.589.075 1.015.233zm1.54.029c.676.188 1.095.385.594.279-.302-.064-1.45-.459-1.355-.466.038-.003.381.081.761.187zm2.839-.07c.439.1.502.131.353.174-.335.096-.805.067-1.401-.085-.326-.083-.605-.165-.622-.181-.085-.085 1.208-.014 1.67.092zm-11.837.22.486.125-.392.068c-.558.097-1.675-.132-1.238-.254.311-.086.641-.069 1.144.06zm21.684.065c0 .025-.116.237-.259.471-.253.416-.369.487-.634.385-.085-.033-.045-.133.189-.471.243-.352.333-.43.5-.43.112 0 .204.02.204.045zm-13.393.645c2.506.584 2.562.598 2.507.654-.02.02-.473-.017-1.007-.083-1.4-.172-2.165-.116-3.434.253l-1.014.294-2.899-.506c-3.394-.593-3.298-.574-3.298-.643 0-.053.616-.168 1.667-.31.299-.04 1.408-.097 2.464-.126s2.09-.058 2.297-.065c.251-.009 1.158.169 2.718.533zm-4.507-.396c-1.136.027-2.375.086-2.754.129-.657.076-1.453.208-1.493.248-.01.01 1.292.247 2.893.526l2.912.507.942-.282c.85-.254 1.049-.286 2.029-.327l1.087-.045-1.703-.391c-.937-.215-1.736-.397-1.776-.403s-1.002.011-2.138.038zm-6.151.264.443.123-.384.13c-.365.124-.403.124-.78.006l-.396-.125.282-.127c.347-.156.302-.156.835-.007zm4.085.856c1.714.262 3.162.493 3.218.512.067.023-.006.113-.217.265-1.002.721-1.736 1.3-2.217 1.749-.567.53-1.329 1.46-1.625 1.984-.145.256-.211.307-.394.308-.173 0-8.043-.663-8.802-.742-.167-.017-.14-.061.362-.568 1.683-1.699 5.537-4.141 6.341-4.018l3.334.51zm-4.177-.156c-1.623.708-3.984 2.322-5.316 3.634-.472.464-.495.501-.326.521.558.067 8.715.751 8.728.733.009-.012.093-.153.186-.312.31-.527 1.059-1.442 1.603-1.958.458-.434 1.56-1.305 2.169-1.712.098-.065.161-.135.141-.155-.049-.049-6.168-.995-6.427-.993-.113.001-.454.11-.758.243zm-2.058.369.215.085-.407.233c-.39.223-.421.229-.74.144-.183-.049-.333-.112-.333-.14s.155-.149.344-.268c.355-.223.474-.23.921-.053zm14.026.193c.709.238.438.226-.644-.027-.513-.12-.638-.171-.507-.206.217-.059.382-.025 1.152.233zm10.876-.226c.216 0 .165.18-.124.434-.229.201-.298.225-.525.182-.465-.087-.473-.134-.065-.42.21-.147.426-.252.479-.232s.159.036.235.036zm-12.616.308.326.098-.565.097c-.454.078-.642.08-.96.009-.217-.049-.395-.116-.395-.149 0-.106.532-.214.906-.184.199.016.509.073.688.128zm3.189-.084c.369.085 2.323.812 2.285.85-.067.067-2.787-.769-2.931-.901-.058-.053.323-.023.646.051zm3.841.754c.339.059.991.247 1.449.417.758.281.809.311.563.331-.249.021-1.252-.283-2.346-.71-.436-.17-.429-.171.333-.037zm-21.118.046c.179.045.316.106.304.137s-.225.224-.474.432c-.417.347-.475.373-.726.331-.496-.084-.493-.132.034-.569.271-.225.503-.409.515-.41s.168.035.347.08zm25.065.05.432.129-.821.333-1.202-.405.471-.084c.656-.117.64-.118 1.12.026zm-13.545.022c.177.045.321.102.319.127s-.138.14-.303.254l-.301.208-.385-.121c-.212-.067-.385-.135-.385-.151 0-.059.543-.398.637-.398.053 0 .241.037.418.081zm-1.33 1.25.196.082-.581.618-.4-.116c-.446-.13-.446-.076.004-.595.152-.175.343-.172.781.011zm-11.744.327c.096.036.028.142-.344.534-.477.503-.575.545-.92.395l-.201-.087.446-.493c.47-.52.518-.536 1.019-.349zm10.656 1.331c-.066.111-.19.29-.276.399-.154.193-.164.195-.507.104-.193-.052-.364-.108-.381-.125s.086-.207.229-.423l.26-.392.795.235-.119.202zm-6.612.713c2.37.2 4.321.375 4.335.389s-.074.223-.196.465c-.411.815-1.291 2.938-1.602 3.868l-.309.923-.478-.036c-.263-.02-2.402-.085-4.754-.146s-4.513-.129-4.802-.151l-.526-.041.556-1.063c.721-1.377 1.601-2.836 2.316-3.841l.571-.801.29.035c.16.019 2.23.198 4.6.398zm-5.777-.292.272.075-.301.398c-.279.369-.318.395-.525.351-.417-.089-.425-.12-.134-.521.298-.412.298-.412.689-.303zm.398.774c-.301.429-.742 1.09-.979 1.468-.453.724-1.786 3.185-1.744 3.22.014.011 1.965.074 4.337.14s4.671.139 5.11.163l.798.043.094-.351c.154-.576.867-2.379 1.398-3.536.273-.595.48-1.099.459-1.12s-1.839-.191-4.039-.378c-2.201-.187-4.2-.36-4.444-.384l-.443-.044-.547.78zm10.807.031.363.084-.564 1.123-.383-.111a3.771 3.771 0 0 1-.409-.133c-.04-.035.52-1.046.579-1.046.028 0 .215.038.415.084zm-12.412.975c.096.024.174.061.174.083 0 .029-.654 1.088-.76 1.232-.013.018-.486-.131-.532-.167-.034-.027.176-.42.47-.879.176-.275.287-.383.363-.354.06.023.188.062.284.086zm11.754 1.15c.018.015-.395 1.091-.463 1.208-.043.073-.752-.173-.753-.261 0-.042.1-.325.222-.629l.222-.552.376.109c.207.06.385.116.396.126zM4.464 20.264c.096.024.174.057.174.074 0 .094-.592 1.186-.642 1.186-.033 0-.162-.035-.286-.078l-.225-.078.303-.611c.205-.414.335-.599.402-.574.054.021.177.058.273.082zm11.835 1.339c.164.049.297.111.297.137 0 .04-.281.901-.396 1.212-.024.066-.117.059-.38-.029-.191-.064-.36-.126-.374-.138s.064-.319.175-.681c.133-.433.233-.647.291-.625.049.019.223.074.386.123zM3.434 22.612c.049.048-.362 1.159-.429 1.159-.129 0-.469-.184-.469-.254 0-.052.098-.313.218-.58.207-.461.228-.483.417-.436a.735.735 0 0 1 .263.112zm6.725.168c2.498.087 4.559.175 4.578.195s-.076.492-.213 1.05a57.333 57.333 0 0 0-.754 3.634l-.083.518-1.39.042c-.764.023-3.417.056-5.895.073l-4.505.031.432-1.275c.568-1.678 1.103-3.099 1.445-3.838l.277-.598.784.005c.431.003 2.828.076 5.326.164zm-6.169.185c-.363.711-1.889 4.897-1.889 5.181 0 .09 2.48.091 8.309.004l3.2-.048.084-.589c.097-.679.509-2.65.772-3.696.099-.393.164-.732.144-.752-.032-.032-9.095-.372-10.097-.379-.368-.003-.383.005-.522.278zm11.517 1.14c.16.064.291.143.291.176 0 .081-.352 1.39-.378 1.406a2.623 2.623 0 0 1-.393-.05l-.372-.063.175-.702c.217-.872.221-.884.311-.884.04 0 .204.052.365.117zm-13.159.75.184.07-.171.456c-.138.367-.204.459-.342.474-.352.039-.389-.069-.205-.591.174-.492.22-.528.534-.409zm12.66 1.732.188.046-.146.642-.147.642-.351-.034c-.193-.019-.364-.047-.38-.063-.025-.025.013-.227.216-1.133.038-.171.214-.199.62-.1zm-13.311.435c.021.035-.037.287-.129.562-.163.486-.174.499-.433.521-.146.012-.266-.007-.266-.043 0-.054.186-.633.325-1.012.037-.102.443-.124.503-.028z"/>
    </symbol>

    <symbol id="cinema-film" viewBox="0 0 32 32">
      <path d="M29.748 6.413a.59.59 0 1 0 0-1.182h-1.381V1.185h1.381a.592.592 0 0 0 0-1.183L2.252.001a.592.592 0 0 0 0 1.184h1.084V5.23H2.252a.591.591 0 0 0 0 1.183h5.064v19.175H2.252a.59.59 0 1 0 0 1.182h1.084v4.046H2.252a.592.592 0 0 0 0 1.184h27.496a.59.59 0 1 0 0-1.183h-1.381v-4.045h1.381a.591.591 0 0 0 0-1.183h-4.934V6.413h4.934zM18.827 1.185h3.586V5.23h-3.586V1.185zm-4.768 0h3.585V5.23h-3.585V1.185zm-4.769 0h3.585V5.23H9.29V1.185zM8.105 30.818H4.52v-4.046h3.585v4.046zm0-25.589H4.52V1.184h3.585v4.045zm.001 1.184h15.919v19.175H8.106V6.413zm4.769 24.405H9.29v-4.045h3.585v4.045zm4.769 0h-3.585v-4.045h3.585v4.045zm4.77 0h-3.586v-4.045h3.586v4.045zm4.769-4.045v4.045h-3.585v-4.045h3.585zM23.597 5.23V1.185h3.585V5.23h-3.585z"/>
    </symbol>
    <symbol id="popcorn" viewBox="0 0 32 32">
      <path d="M15.91 17.724c0 3.348-1.921 6.063-4.29 6.063s-4.29-2.714-4.29-6.063c0-3.348 1.921-6.063 4.29-6.063s4.29 2.714 4.29 6.063zM19.887 31.511h.889l1.769-26.122-1.316-.154zM27.685 5.991l-1.079-.126-2.991 25.646h1.431zM25.024 5.68l-.747-.088-2.533 25.919h.9z"/>
      <path d="M25.87 3.409c-.036 0-.068.007-.103.011a1.025 1.025 0 0 0-.62-.212c-.319 0-.6.147-.791.375a1.442 1.442 0 0 0-2.466-.791 1.029 1.029 0 0 0-1.022-.929c-.312 0-.589.141-.776.36a1.261 1.261 0 0 0-.895-.374 1.3 1.3 0 0 0-.314.044.914.914 0 0 0 .019-.182c0-.57-.463-1.031-1.032-1.031-.34 0-.64.167-.827.421a1.707 1.707 0 0 0-1.594-1.102 1.71 1.71 0 0 0-1.559 1.013c-.023-.001-.044-.006-.066-.006-.433 0-.81.223-1.031.557-.013 0-.026-.004-.039-.004a1.18 1.18 0 0 0-1.163.988 1.321 1.321 0 0 0-2.252-.252 1.013 1.013 0 0 0-.476-.121 1.03 1.03 0 0 0-.977.714 1.69 1.69 0 0 0-.735-.172c-.944 0-1.711.766-1.711 1.711 0 .468.179 1.001.485 1.31l11.969-1.256 8.997 1.028V4.285h-.01a1.023 1.023 0 0 0-1.01-.877zM6.38 6.168l-2.064.214 2.445 25.619 1.793-.083-.833-9.871c-.714-1.18-1.144-2.683-1.144-4.322 0-1.083.192-2.103.525-3.014l-.721-8.543z"/>
      <path d="m16.252 31.564 1.166-.052h1.191l.979-26.468-1.093-.128-1.775.183-.204 11.578c.039.342.065.692.065 1.048 0 .483-.038.954-.109 1.41l-.219 12.43zM14.449 5.333l-2.04.211.142 5.456c.726.183 1.398.574 1.98 1.128l-.082-6.795zM13.095 31.709l1.673-.077-.103-8.447a4.67 4.67 0 0 1-1.764 1.154l.194 7.37zM10.558 5.735l-1.732.179.269 5.882a4.277 4.277 0 0 1 1.677-.814l-.214-5.246zM10.012 31.85l1.609-.074-.295-7.229a3.988 3.988 0 0 1-1.672-.514l.357 7.816z"/>
    </symbol>
  </defs>
</svg>