<svg aria-hidden="true" style="position:absolute;width:0;height:0;overflow:hidden" xmlns="http://www.w3.org/2000/svg">
  <defs>
    <symbol id="cinema" viewBox="0 0 32 32">
      <path d="M29.416 5.042H2.583A2.587 2.587 0 0 0-.001 7.626v16.748a2.587 2.587 0 0 0 2.584 2.584h26.833A2.587 2.587 0 0 0 32 24.374V7.626a2.587 2.587 0 0 0-2.584-2.584zm-13.553 6.859v10.585H13.46v-5.467H7.718v5.467H5.315V11.901c0-.257-.147-.404-.404-.404h-.789V9.461H6.47c.881 0 1.247.385 1.247 1.247v4.274h5.742v-4.274c0-.862.385-1.247 1.247-1.247h2.348l-.789 2.036c-.257 0-.404.147-.404.404zm5.353 10.638h-2.871c-.883 0-1.251-.368-1.251-1.251v-8.055h2.411l.006 7.263h1.576c2.613 0 4.288-1.564 4.288-4.508 0-2.908-1.711-4.472-4.288-4.472l-4.063-.01.848-2.036 3.343.003c4.03 0 6.662 2.392 6.662 6.514s-2.631 6.551-6.661 6.551z"/>
    </symbol>

    <symbol id="like" viewBox="0 0 32 32">
      <path d="M23.275 2.906c-3.056 0-5.744 1.525-7.275 3.925-1.525-2.394-4.219-3.925-7.275-3.925C3.925 2.906 0 6.837 0 11.637c0 8.656 16 17.456 16 17.456s16-8.725 16-17.456c0-4.8-3.925-8.731-8.725-8.731z"/>
    </symbol>
  </defs>
</svg>